<svg width="38" height="38" viewBox="0 0 38 38" fill="none" xmlns="http://www.w3.org/2000/svg">
<circle cx="19" cy="19" r="17.0667" stroke="white" stroke-width="2.13333"/>
<path d="M19.1329 12.9999C18.6714 12.9999 18.2203 12.8631 17.8366 12.6067C17.4528 12.3503 17.1538 11.9859 16.9772 11.5595C16.8006 11.1332 16.7544 10.664 16.8444 10.2114C16.9344 9.75875 17.1567 9.34299 17.483 9.01667C17.8093 8.69035 18.2251 8.46812 18.6777 8.37809C19.1303 8.28806 19.5995 8.33426 20.0258 8.51087C20.4522 8.68747 20.8166 8.98654 21.073 9.37026C21.3294 9.75397 21.4662 10.2051 21.4662 10.6666C21.4656 11.2852 21.2195 11.8783 20.7821 12.3158C20.3446 12.7532 19.7515 12.9993 19.1329 12.9999Z" fill="white"/>
<path d="M26.4663 13.0332L26.4476 13.0382L26.4301 13.0436C26.3884 13.0553 26.3467 13.0678 26.3051 13.0807C25.5297 13.3082 21.7663 14.369 19.1151 14.369C16.6513 14.369 13.2284 13.4524 12.1334 13.1411C12.0244 13.099 11.9131 13.0631 11.8001 13.0336C11.0084 12.8253 10.4667 13.6295 10.4667 14.3645C10.4667 15.0924 11.1209 15.439 11.7813 15.6878V15.6995L15.7488 16.9386C16.1542 17.094 16.2626 17.2528 16.3155 17.3903C16.4876 17.8315 16.3501 18.7053 16.3013 19.0103L16.0597 20.8853L14.7184 28.2265C14.7142 28.2465 14.7105 28.267 14.7072 28.2878L14.6976 28.3407C14.6009 29.0136 15.0951 29.6665 16.0309 29.6665C16.8476 29.6665 17.208 29.1028 17.3642 28.3357C17.5205 27.5686 18.5309 21.7703 19.1142 21.7703C19.6976 21.7703 20.8992 28.3357 20.8992 28.3357C21.0555 29.1028 21.4159 29.6665 22.2326 29.6665C23.1709 29.6665 23.6651 29.0107 23.5659 28.3357C23.5574 28.279 23.5468 28.2225 23.5342 28.1665L22.1747 20.8861L21.9334 19.0111C21.7588 17.919 21.8992 17.5582 21.9467 17.4736C21.948 17.4716 21.9491 17.4695 21.9501 17.4674C21.9951 17.384 22.2001 17.1974 22.6784 17.0178L26.3984 15.7174C26.4213 15.7113 26.4438 15.7041 26.4659 15.6957C27.1326 15.4457 27.7992 15.0999 27.7992 14.3653C27.7992 13.6307 27.258 12.8253 26.4663 13.0332Z" fill="white"/>
</svg>
