<svg id="mock-logo" xmlns="http://www.w3.org/2000/svg" xmlns:xlink="http://www.w3.org/1999/xlink" width="412.697" height="73.262" viewBox="0 0 412.697 73.262">
  <defs>
    <clipPath id="clip-path">
      <rect id="Rectangle_7991" data-name="Rectangle 7991" width="412.697" height="73.262" fill="#fff"/>
    </clipPath>
    <clipPath id="clip-path-2">
      <rect id="Rectangle_7990" data-name="Rectangle 7990" width="282.981" height="64.494" fill="#fff"/>
    </clipPath>
    <clipPath id="clip-path-3">
      <rect id="Rectangle_7988" data-name="Rectangle 7988" width="282.981" height="31.74" fill="#fff"/>
    </clipPath>
    <clipPath id="clip-path-4">
      <rect id="Rectangle_7989" data-name="Rectangle 7989" width="234.632" height="31.74" fill="#fff"/>
    </clipPath>
  </defs>
  <rect id="Rectangle_7987" data-name="Rectangle 7987" width="2.457" height="52.611" transform="translate(86.797 3.455)" fill="#fa4616"/>
  <path id="Path_13707" data-name="Path 13707" d="M34.206,45.291V31.985H46.694V22.978H34.206V10.49H47.922V15.4h9.007V1.688H20.9v8.8h3.275v34.8H20.9V54.3H37.482V45.291Z" transform="translate(21.885 1.768)" fill="#fff"/>
  <g id="Group_11540" data-name="Group 11540" transform="translate(0 0)">
    <g id="Group_11539" data-name="Group 11539" clip-path="url(#clip-path)">
      <path id="Path_13708" data-name="Path 13708" d="M38.076,34.442V10.491h3.275v-8.8H24.77v8.8h3.275V31.371c0,8.8-1.024,12.9-7.37,12.9s-7.37-4.3-7.37-12.9V10.491h3.275v-8.8H0v8.8H3.275V34.442c0,5.118,0,9.417,2.457,13.306,2.661,4.3,7.779,7.165,14.944,7.165,12.9,0,17.4-6.755,17.4-20.471" transform="translate(0 1.768)" fill="#fff"/>
      <g id="Group_11538" data-name="Group 11538" transform="translate(97.198 0)" style="isolation: isolate">
        <g id="Group_11537" data-name="Group 11537" transform="translate(0 0)">
          <g id="Group_11536" data-name="Group 11536" clip-path="url(#clip-path-2)">
            <g id="Group_11532" data-name="Group 11532" style="isolation: isolate">
              <g id="Group_11531" data-name="Group 11531">
                <g id="Group_11530" data-name="Group 11530" clip-path="url(#clip-path-3)">
                  <text id="Lorem_Ipsum_College" data-name="Lorem Ipsum College" transform="translate(0 24.38)" fill="#fff" font-size="28" font-family="Helvetica"><tspan x="0" y="0">Lorem Ipsum Colle</tspan><tspan y="0" letter-spacing="-0.015em">g</tspan><tspan y="0">e</tspan></text>
                </g>
              </g>
            </g>
            <g id="Group_11535" data-name="Group 11535" transform="translate(0 32.754)" style="isolation: isolate">
              <g id="Group_11534" data-name="Group 11534">
                <g id="Group_11533" data-name="Group 11533" clip-path="url(#clip-path-4)">
                  <text id="of_Dolar_Gupthgo" data-name="of Dolar Gupthgo" transform="translate(0 24.38)" fill="#fff" font-size="28" font-family="Helvetica"><tspan x="0" y="0">of Dolar Gup</tspan><tspan y="0" letter-spacing="0.019em">t</tspan><tspan y="0">hgo</tspan></text>
                </g>
              </g>
            </g>
          </g>
        </g>
      </g>
    </g>
  </g>
</svg>
